# xmcd
#
# Track frame offsets: 
#        182
#        13225
#        30565
#        39582
#        49272
#        60207
#        69227
#        82342
#        99220
#        108377
#        124122
#        137727
#        153620
#        167102
#        182897
#        197392
#
# Disc length: 2777 seconds
#
# Revision: 1
# Processed by: cddbd v1.5.2PL0 Copyright (c) Steve Scherf et al.
# Submitted via: ExactAudioCopy v1.0b1
#
DISCID=d40ad710
DTITLE=Various Artist - Bossa Nova - The Greatest Hits
DYEAR=1995
DGENRE=Jazz
TTITLE0=Johnny Alf - O Barquinho (Little Boat)
TTITLE1=Maria Creuza - Tarde em Itapoã
TTITLE2=Leny Andrade - Samba de Uma Nota Só
TTITLE3=Os Cariocas - Vou te Contar (Wave)
TTITLE4=Tamba Trio - O Samba da Minha Terra
TTITLE5=Milton Banana Trio - Chega de Saudade Desafinado Corcovado
TTITLE6=Dick Farney - Garota de Ipanema
TTITLE7=Alaide Costa - Dindi
TTITLE8=Leny Anrade - Batida Diferente
TTITLE9=Maysa - Demais Meu Mundo Caiu Preciso Aprendar A Ser Só
TTITLE10=Maysa - Canto de Ossanho
TTITLE11=Tamba Trio - Mas Que Nada
TTITLE12=Milton Banana Trio - Bolinha de Papel de Conversa em Conversa
TTITLE13=Toquinho - A Somra de Um Jatobá
TTITLE14=Maria Creuza - O Amor em Paz Brigas Nunca Mais Voce e eu o No
TTITLE14=sso Amor
TTITLE15=Milton Banana Trio - A Felicidade Agua de Beber Ela e Carioca
EXTD=YEAR: 1995
EXTT0=
EXTT1=
EXTT2=
EXTT3=
EXTT4=
EXTT5=
EXTT6=
EXTT7=
EXTT8=
EXTT9=
EXTT10=
EXTT11=
EXTT12=
EXTT13=
EXTT14=
EXTT15=
PLAYORDER=
